<svg width="1483" height="1483" viewBox="0 0 1483 1483" fill="none" xmlns="http://www.w3.org/2000/svg">
<circle cx="356.978" cy="741.5" r="195.5" fill="#1F70A2"/>
<rect x="501.285" y="727.819" width="51.1919" height="27.3612" fill="white"/>
<path d="M596.256 813.321V585.374H650.193L740.729 742.689V585.374H789.529V813.321H734.95L645.056 661.463V813.321H596.256ZM919.996 818.458C896.88 818.458 876.975 813.642 860.281 804.01C843.8 794.379 831.065 780.681 822.075 762.916C813.3 745.151 808.912 724.068 808.912 699.669C808.912 675.269 813.3 654.186 822.075 636.421C831.065 618.443 843.8 604.637 860.281 595.006C876.975 585.16 896.88 580.237 919.996 580.237C943.112 580.237 962.91 585.16 979.391 595.006C996.085 604.637 1008.82 618.443 1017.6 636.421C1026.59 654.186 1031.08 675.269 1031.08 699.669C1031.08 724.068 1026.59 745.151 1017.6 762.916C1008.82 780.681 996.085 794.379 979.391 804.01C962.91 813.642 943.112 818.458 919.996 818.458ZM919.675 777.363C932.517 777.363 943.433 774.367 952.422 768.374C961.626 762.167 968.582 753.284 973.291 741.726C978.214 730.168 980.675 716.149 980.675 699.669C980.675 683.188 978.214 669.169 973.291 657.611C968.582 645.839 961.626 636.849 952.422 630.642C943.433 624.435 932.517 621.332 919.675 621.332C907.047 621.332 896.238 624.435 887.249 630.642C878.259 636.849 871.303 645.839 866.381 657.611C861.672 669.169 859.317 683.188 859.317 699.669C859.317 716.149 861.672 730.168 866.381 741.726C871.303 753.284 878.259 762.167 887.249 768.374C896.452 774.367 907.261 777.363 919.675 777.363ZM1050.58 813.321V585.374H1115.75L1173.87 751.358L1231.65 585.374H1296.83V813.321H1248.03V665.637L1194.41 812.679H1152.68L1099.38 665.637V813.321H1050.58Z" fill="#1F70A2"/>
<path d="M598.931 907.062V833.791H617.144L632.321 866.135C634.066 869.903 635.462 873.008 636.508 875.451C637.625 877.893 638.462 879.917 639.02 881.522C639.648 883.127 640.137 884.522 640.486 885.709C640.835 884.522 641.288 883.127 641.847 881.522C642.405 879.917 643.207 877.893 644.254 875.451C645.371 873.008 646.801 869.903 648.546 866.135L663.828 833.791H681.413V907.062H667.073V877.439C667.073 874.09 667.107 871.229 667.177 868.856C667.247 866.484 667.352 864.321 667.491 862.367C667.631 860.343 667.84 858.284 668.119 856.191L643.731 907.062H636.613L612.224 856.191C612.503 858.284 612.713 860.343 612.852 862.367C612.992 864.321 613.097 866.484 613.166 868.856C613.236 871.229 613.271 874.09 613.271 877.439V907.062H598.931ZM715.713 908.423C709.921 908.423 704.583 907.201 699.698 904.759C694.884 902.247 690.871 898.2 687.661 892.617L700.327 884.557C702.211 888.325 704.583 891.082 707.444 892.826C710.305 894.501 713.341 895.338 716.551 895.338C719.97 895.338 722.657 894.571 724.61 893.036C726.564 891.5 727.541 889.477 727.541 886.965C727.541 884.522 726.774 882.568 725.239 881.103C723.703 879.638 721.645 878.451 719.063 877.544C716.551 876.637 713.794 875.8 710.794 875.032C705.141 873.567 700.641 871.159 697.291 867.81C693.941 864.39 692.267 859.924 692.267 854.412C692.267 850.015 693.348 846.177 695.512 842.898C697.675 839.618 700.675 837.071 704.513 835.257C708.421 833.442 712.957 832.535 718.121 832.535C723.843 832.535 728.623 833.721 732.461 836.094C736.299 838.466 739.579 841.816 742.3 846.142L729.739 853.888C727.995 851.027 726.181 848.934 724.296 847.608C722.412 846.282 720.11 845.619 717.388 845.619C714.457 845.619 712.015 846.352 710.061 847.817C708.177 849.283 707.235 851.237 707.235 853.679C707.235 856.4 708.351 858.389 710.584 859.645C712.887 860.831 715.644 861.913 718.854 862.89C721.017 863.588 723.424 864.425 726.076 865.402C728.797 866.309 731.414 867.6 733.926 869.275C736.438 870.88 738.497 873.043 740.102 875.765C741.707 878.486 742.509 881.94 742.509 886.127C742.509 890.524 741.428 894.396 739.265 897.746C737.101 901.095 734.031 903.712 730.053 905.596C726.076 907.48 721.296 908.423 715.713 908.423ZM750.011 907.062V833.791H774.713C782.668 833.791 788.739 835.571 792.926 839.129C797.113 842.688 799.207 847.329 799.207 853.051C799.207 856.54 798.334 859.575 796.59 862.157C794.915 864.669 791.845 866.763 787.379 868.438C793.38 869.833 797.532 872.136 799.835 875.346C802.138 878.486 803.289 882.324 803.289 886.86C803.289 893.001 800.951 897.92 796.276 901.619C791.601 905.247 785.285 907.062 777.33 907.062H750.011ZM764.665 864.041H773.353C777.33 864.041 780.156 863.344 781.831 861.948C783.506 860.483 784.343 858.284 784.343 855.354C784.343 852.841 783.506 850.818 781.831 849.283C780.156 847.678 777.33 846.875 773.353 846.875H764.665V864.041ZM764.665 893.873H775.969C779.947 893.873 783.017 893.14 785.181 891.675C787.344 890.14 788.425 887.767 788.425 884.557C788.425 881.906 787.344 879.812 785.181 878.277C783.017 876.742 779.947 875.974 775.969 875.974H764.665V893.873ZM810.116 907.062V833.791H828.329L843.506 866.135C845.251 869.903 846.646 873.008 847.693 875.451C848.809 877.893 849.647 879.917 850.205 881.522C850.833 883.127 851.322 884.522 851.67 885.709C852.019 884.522 852.473 883.127 853.031 881.522C853.589 879.917 854.392 877.893 855.439 875.451C856.555 873.008 857.986 869.903 859.73 866.135L875.012 833.791H892.597V907.062H878.257V877.439C878.257 874.09 878.292 871.229 878.362 868.856C878.432 866.484 878.536 864.321 878.676 862.367C878.816 860.343 879.025 858.284 879.304 856.191L854.915 907.062H847.798L823.409 856.191C823.688 858.284 823.897 860.343 824.037 862.367C824.177 864.321 824.281 866.484 824.351 868.856C824.421 871.229 824.456 874.09 824.456 877.439V907.062H810.116ZM942.844 908.423C937.052 908.423 931.714 907.201 926.829 904.759C922.014 902.247 918.002 898.2 914.792 892.617L927.457 884.557C929.341 888.325 931.714 891.082 934.575 892.826C937.436 894.501 940.472 895.338 943.682 895.338C947.101 895.338 949.787 894.571 951.741 893.036C953.695 891.5 954.672 889.477 954.672 886.965C954.672 884.522 953.905 882.568 952.369 881.103C950.834 879.638 948.776 878.451 946.194 877.544C943.682 876.637 940.925 875.8 937.925 875.032C932.272 873.567 927.771 871.159 924.422 867.81C921.072 864.39 919.398 859.924 919.398 854.412C919.398 850.015 920.479 846.177 922.642 842.898C924.806 839.618 927.806 837.071 931.644 835.257C935.552 833.442 940.088 832.535 945.252 832.535C950.974 832.535 955.754 833.721 959.592 836.094C963.43 838.466 966.709 841.816 969.431 846.142L956.87 853.888C955.126 851.027 953.311 848.934 951.427 847.608C949.543 846.282 947.24 845.619 944.519 845.619C941.588 845.619 939.146 846.352 937.192 847.817C935.308 849.283 934.366 851.237 934.366 853.679C934.366 856.4 935.482 858.389 937.715 859.645C940.018 860.831 942.774 861.913 945.984 862.89C948.148 863.588 950.555 864.425 953.207 865.402C955.928 866.309 958.545 867.6 961.057 869.275C963.569 870.88 965.628 873.043 967.233 875.765C968.838 878.486 969.64 881.94 969.64 886.127C969.64 890.524 968.559 894.396 966.395 897.746C964.232 901.095 961.162 903.712 957.184 905.596C953.207 907.48 948.427 908.423 942.844 908.423ZM977.963 928.938C976.567 928.938 974.997 928.869 973.252 928.729C971.508 928.589 969.938 928.31 968.542 927.892L970.635 914.389C972.589 914.877 974.718 915.122 977.021 915.122C979.742 915.122 981.975 914.319 983.72 912.714C985.464 911.179 986.72 909.225 987.488 906.852L988.22 904.55L966.658 852.632H983.72L994.291 883.72C995.268 886.511 996.036 889.407 996.594 892.408C997.152 889.407 997.92 886.511 998.897 883.72L1009.47 852.632H1026.22L1002.14 910.516C999.839 916.029 996.838 920.46 993.14 923.809C989.442 927.229 984.382 928.938 977.963 928.938ZM1043.79 908.423C1034.65 908.423 1027.11 905.247 1021.18 898.897L1030.71 890.21C1034.69 894.676 1038.94 896.909 1043.48 896.909C1045.92 896.909 1047.77 896.385 1049.03 895.338C1050.35 894.222 1051.01 892.861 1051.01 891.256C1051.01 890.279 1050.77 889.442 1050.28 888.744C1049.86 888.046 1048.92 887.383 1047.46 886.755C1046.06 886.127 1043.93 885.499 1041.07 884.871C1036.19 883.685 1032.56 882.22 1030.18 880.475C1027.81 878.73 1026.24 876.777 1025.47 874.613C1024.71 872.45 1024.32 870.217 1024.32 867.914C1024.32 863.169 1026.1 859.226 1029.66 856.086C1033.29 852.876 1038.28 851.271 1044.63 851.271C1049.03 851.271 1052.79 851.934 1055.93 853.26C1059.07 854.586 1062.04 857.063 1064.83 860.692L1054.57 868.542C1053.25 866.449 1051.75 864.949 1050.07 864.041C1048.47 863.134 1046.76 862.681 1044.94 862.681C1042.99 862.681 1041.35 863.064 1040.02 863.832C1038.77 864.6 1038.14 865.821 1038.14 867.496C1038.14 868.403 1038.56 869.31 1039.4 870.217C1040.23 871.054 1042.26 871.892 1045.47 872.729C1050.77 874.055 1054.82 875.625 1057.61 877.439C1060.4 879.184 1062.32 881.173 1063.37 883.406C1064.41 885.639 1064.94 888.116 1064.94 890.838C1064.94 894.187 1063.99 897.188 1062.11 899.839C1060.29 902.491 1057.78 904.585 1054.57 906.12C1051.43 907.655 1047.84 908.423 1043.79 908.423ZM1090.14 907.062C1084.77 907.062 1080.65 905.736 1077.79 903.084C1074.93 900.433 1073.5 896.141 1073.5 890.21V864.669H1065.86V852.632H1073.5V841.642L1087.63 840.176V852.632H1099.15V864.669H1087.63V889.477C1087.63 892.826 1089.1 894.501 1092.03 894.501H1097.89V907.062H1090.14ZM1128.5 908.423C1122.92 908.423 1118 907.132 1113.74 904.55C1109.49 901.968 1106.17 898.548 1103.8 894.292C1101.5 889.965 1100.34 885.185 1100.34 879.952C1100.34 874.718 1101.57 869.938 1104.01 865.612C1106.45 861.215 1109.76 857.726 1113.95 855.144C1118.21 852.562 1123.06 851.271 1128.5 851.271C1133.94 851.271 1138.72 852.562 1142.84 855.144C1147.03 857.726 1150.27 861.215 1152.58 865.612C1154.95 869.938 1156.13 874.718 1156.13 879.952C1156.13 880.719 1156.1 881.522 1156.03 882.359C1155.96 883.196 1155.86 884.069 1155.72 884.976H1115C1115.77 888.186 1117.3 890.803 1119.6 892.826C1121.98 894.85 1124.94 895.862 1128.5 895.862C1131.57 895.862 1134.22 895.164 1136.46 893.768C1138.76 892.373 1140.54 890.628 1141.79 888.535L1152.79 896.804C1150.62 900.223 1147.38 903.014 1143.05 905.178C1138.72 907.341 1133.87 908.423 1128.5 908.423ZM1128.29 863.413C1124.94 863.413 1122.08 864.425 1119.71 866.449C1117.34 868.473 1115.77 871.124 1115 874.404H1141.9C1141.13 871.403 1139.53 868.821 1137.08 866.658C1134.71 864.495 1131.78 863.413 1128.29 863.413ZM1162.34 907.062V852.632H1176.26V860.587C1179.12 854.446 1184.67 851.376 1192.9 851.376C1196.74 851.376 1200.19 852.283 1203.26 854.098C1206.34 855.842 1208.78 858.354 1210.59 861.634C1212.41 858.354 1214.71 855.842 1217.5 854.098C1220.36 852.283 1224.2 851.376 1229.01 851.376C1232.92 851.376 1236.45 852.283 1239.59 854.098C1242.73 855.912 1245.2 858.494 1247.02 861.843C1248.83 865.193 1249.74 869.17 1249.74 873.776V907.062H1235.61V877.23C1235.61 872.485 1234.6 869.066 1232.57 866.972C1230.55 864.809 1227.93 863.727 1224.72 863.727C1221.44 863.727 1218.76 864.669 1216.66 866.554C1214.64 868.438 1213.63 871.997 1213.63 877.23V907.062H1199.5V877.23C1199.5 872.485 1198.42 869.066 1196.25 866.972C1194.09 864.809 1191.26 863.727 1187.77 863.727C1184.77 863.727 1182.12 864.809 1179.82 866.972C1177.59 869.066 1176.47 872.485 1176.47 877.23V907.062H1162.34ZM1276.24 908.423C1267.1 908.423 1259.56 905.247 1253.63 898.897L1263.15 890.21C1267.13 894.676 1271.39 896.909 1275.92 896.909C1278.37 896.909 1280.22 896.385 1281.47 895.338C1282.8 894.222 1283.46 892.861 1283.46 891.256C1283.46 890.279 1283.22 889.442 1282.73 888.744C1282.31 888.046 1281.37 887.383 1279.9 886.755C1278.51 886.127 1276.38 885.499 1273.52 884.871C1268.63 883.685 1265 882.22 1262.63 880.475C1260.26 878.73 1258.69 876.777 1257.92 874.613C1257.15 872.45 1256.77 870.217 1256.77 867.914C1256.77 863.169 1258.55 859.226 1262.11 856.086C1265.74 852.876 1270.73 851.271 1277.08 851.271C1281.47 851.271 1285.24 851.934 1288.38 853.26C1291.52 854.586 1294.49 857.063 1297.28 860.692L1287.02 868.542C1285.69 866.449 1284.19 864.949 1282.52 864.041C1280.91 863.134 1279.2 862.681 1277.39 862.681C1275.44 862.681 1273.8 863.064 1272.47 863.832C1271.21 864.6 1270.59 865.821 1270.59 867.496C1270.59 868.403 1271 869.31 1271.84 870.217C1272.68 871.054 1274.7 871.892 1277.91 872.729C1283.22 874.055 1287.26 875.625 1290.05 877.439C1292.85 879.184 1294.76 881.173 1295.81 883.406C1296.86 885.639 1297.38 888.116 1297.38 890.838C1297.38 894.187 1296.44 897.188 1294.56 899.839C1292.74 902.491 1290.23 904.585 1287.02 906.12C1283.88 907.655 1280.29 908.423 1276.24 908.423Z" fill="white"/>
<path d="M350.211 618.641C353.945 618.197 360.023 618.58 363.218 618.726C378.78 619.439 393.463 622.765 407.868 628.816H407.867C433.01 639.308 453.975 657.824 467.494 681.477L468.236 682.787C471.872 689.293 474.435 695.194 477.226 702.04L479.21 706.907H473.954C470.643 706.907 465.13 706.92 461.608 706.907V706.906L434.082 707.058L431.856 707.07L430.885 705.069C421.138 685.014 400.067 668.503 378.418 663.315C332.217 652.244 286.154 677.33 274.93 724.403C264.068 769.958 288.507 816.79 334.471 828.673H334.47C357.284 834.518 381.143 831.169 401.108 818.759C416.734 808.862 428.552 793.969 434.643 776.503L434.65 776.482C435.692 773.556 436.544 770.45 437.33 767.288C436.036 767.313 434.606 767.329 433.179 767.336C429.348 767.356 425.191 767.327 423.985 767.331H423.978L380.397 767.355H380.384L365.268 767.305V767.304C362.476 767.296 358.895 767.179 356.739 767.439L352.79 767.916L352.784 763.937L352.729 728.315L352.725 724.779L356.261 724.777L480.103 724.706L483.629 724.704L483.638 728.23C483.648 732.348 483.849 736.237 484.004 740.32C484.157 744.36 484.26 748.525 484.053 752.993C482.913 781.596 472.084 808.963 453.344 830.6L453.333 830.612L453.323 830.624C431.059 855.883 399.675 871.267 366.071 873.397H366.066C293.966 877.871 232.512 827.121 228.801 753.939C225.042 679.808 276.305 623.235 350.211 618.641Z" fill="#7ABDE6" stroke="#ADE0FF" stroke-width="7.06627"/>
</svg>
